<svg width="122" height="122" viewBox="0 0 122 122" fill="none" xmlns="http://www.w3.org/2000/svg">
<path d="M110.019 12.8195H91.1807L67.9554 5.24219C66.5607 4.78584 65.0819 4.64615 63.6264 4.83329C62.171 5.02042 60.7756 5.52968 59.5417 6.32399L45.5474 15.3143C45.3965 15.4112 45.266 15.5368 45.1636 15.6841C45.0612 15.8313 44.9888 15.9973 44.9505 16.1726C44.9122 16.3478 44.9088 16.5289 44.9405 16.7054C44.9722 16.882 45.0384 17.0505 45.1352 17.2015C45.2321 17.3525 45.3577 17.4829 45.505 17.5854C45.6522 17.6878 45.8182 17.7602 45.9934 17.7985C46.1687 17.8368 46.3497 17.8402 46.5263 17.8085C46.7029 17.7768 46.8714 17.7106 47.0224 17.6138L61.0167 8.63532C61.9104 8.06138 62.9209 7.69423 63.9746 7.56066C65.0283 7.4271 66.0985 7.53049 67.1071 7.86329L90.5469 15.4883C90.683 15.533 90.8254 15.5555 90.9686 15.555H108.656V38.5039H98.4935C98.2431 38.5042 97.9976 38.5732 97.7837 38.7035C97.5699 38.8337 97.3959 39.0202 97.2807 39.2425C95.7499 41.8319 93.412 43.8475 90.6255 44.9804V38.8398C92.8153 37.9058 95.1528 36.2807 96.6445 33.4475C96.7285 33.2886 96.7804 33.1146 96.7972 32.9356C96.814 32.7566 96.7953 32.576 96.7423 32.4042C96.6893 32.2324 96.603 32.0727 96.4883 31.9343C96.3736 31.7958 96.2328 31.6813 96.0738 31.5973C95.9148 31.5133 95.7409 31.4614 95.5619 31.4446C95.3829 31.4278 95.2023 31.4464 95.0305 31.4994C94.8587 31.5524 94.699 31.6387 94.5605 31.7534C94.4221 31.8682 94.3076 32.009 94.2235 32.168C91.6263 37.1338 85.1689 37.3554 85.1331 37.3554C76.4835 37.3554 73.9863 31.3173 73.8862 31.0671C73.7871 30.8093 73.6123 30.5876 73.3847 30.4311C73.1572 30.2746 72.8876 30.1906 72.6114 30.1902H59.7752C59.2885 30.2027 58.8041 30.1176 58.3508 29.9399C57.8974 29.7622 57.4843 29.4956 57.1356 29.1557C56.7869 28.8158 56.5098 28.4096 56.3206 27.9609C56.1314 27.5123 56.0339 27.0303 56.0339 26.5433C56.0339 26.0564 56.1314 25.5744 56.3206 25.1258C56.5098 24.6771 56.7869 24.2709 57.1356 23.931C57.4843 23.5911 57.8974 23.3245 58.3508 23.1468C58.8041 22.9691 59.2885 22.884 59.7752 22.8964H75.0967C75.281 22.9041 75.4649 22.8745 75.6374 22.8093C75.8099 22.7441 75.9674 22.6447 76.1005 22.517C76.2336 22.3894 76.3395 22.2361 76.4119 22.0665C76.4842 21.8968 76.5215 21.7143 76.5215 21.5299C76.5215 21.3455 76.4842 21.163 76.4119 20.9933C76.3395 20.8237 76.2336 20.6705 76.1005 20.5428C75.9674 20.4151 75.8099 20.3157 75.6374 20.2505C75.4649 20.1853 75.281 20.1557 75.0967 20.1634H59.7752C58.927 20.147 58.0841 20.2999 57.2956 20.6131C56.5072 20.9264 55.7892 21.3937 55.1836 21.9878C54.5779 22.5818 54.0968 23.2907 53.7684 24.0729C53.4399 24.8551 53.2707 25.695 53.2707 26.5433C53.2707 27.3917 53.4399 28.2316 53.7684 29.0138C54.0968 29.796 54.5779 30.5048 55.1836 31.0989C55.7892 31.693 56.5072 32.1603 57.2956 32.4735C58.0841 32.7868 58.927 32.9397 59.7752 32.9233H71.756C72.8974 35.0178 76.5526 40.0884 85.1617 40.0884C86.0818 40.0477 86.996 39.9208 87.8924 39.7096V59.9635C87.8918 60.4979 87.6792 61.0103 87.3013 61.3882C86.9234 61.7661 86.411 61.9787 85.8765 61.9793H15.362C14.8281 61.9787 14.3162 61.7669 13.9381 61.39C13.5599 61.0132 13.3463 60.5021 13.3437 59.9682V24.9123C13.3444 24.3779 13.557 23.8655 13.9349 23.4876C14.3128 23.1097 14.8252 22.8971 15.3596 22.8964H50.2035C50.3877 22.9041 50.5716 22.8745 50.7441 22.8093C50.9166 22.7441 51.0742 22.6447 51.2073 22.517C51.3404 22.3894 51.4463 22.2361 51.5186 22.0665C51.591 21.8968 51.6283 21.7143 51.6283 21.5299C51.6283 21.3455 51.591 21.163 51.5186 20.9933C51.4463 20.8237 51.3404 20.6705 51.2073 20.5428C51.0742 20.4151 50.9166 20.3157 50.7441 20.2505C50.5716 20.1853 50.3877 20.1557 50.2035 20.1634H15.362C14.1038 20.1678 12.8985 20.6695 12.0088 21.5592C11.1192 22.4488 10.6174 23.6542 10.613 24.9123V59.9682C10.6174 61.2264 11.1192 62.4317 12.0088 63.3214C12.8985 64.211 14.1038 64.7128 15.362 64.7172H85.8765C87.1347 64.7128 88.34 64.211 89.2297 63.3214C90.1193 62.4317 90.6211 61.2264 90.6255 59.9682V47.8755C95.5246 46.3147 98.2672 42.781 99.268 41.2346H110.019C110.382 41.2346 110.729 41.0908 110.985 40.8348C111.242 40.5788 111.386 40.2316 111.387 39.8692V14.1873C111.387 13.8245 111.243 13.4766 110.986 13.2201C110.73 12.9636 110.382 12.8195 110.019 12.8195Z" fill="white" fill-opacity="0.5"/>
<path d="M19.8798 49.6411V35.237C21.3174 34.9607 22.6392 34.2597 23.6743 33.2246C24.7094 32.1895 25.4104 30.8677 25.6867 29.4301H49.0216C49.3742 29.4154 49.7074 29.265 49.9516 29.0103C50.1959 28.7556 50.3323 28.4164 50.3323 28.0636C50.3323 27.7107 50.1959 27.3715 49.9516 27.1168C49.7074 26.8622 49.3742 26.7117 49.0216 26.697H24.45C24.0873 26.697 23.7394 26.8411 23.4829 27.0976C23.2264 27.3541 23.0823 27.702 23.0823 28.0648C23.0832 28.6654 22.9658 29.2604 22.7367 29.8157C22.5077 30.371 22.1714 30.8757 21.7472 31.301C21.323 31.7263 20.8192 32.0639 20.2645 32.2944C19.7098 32.5249 19.1151 32.6439 18.5145 32.6445C18.1554 32.647 17.8118 32.7906 17.5576 33.0442C17.3035 33.2979 17.1594 33.6413 17.1563 34.0003V50.8802C17.1562 51.0597 17.1916 51.2374 17.2604 51.4032C17.3292 51.569 17.43 51.7197 17.557 51.8465C17.684 51.9733 17.8348 52.0738 18.0008 52.1423C18.1667 52.2108 18.3445 52.2458 18.524 52.2455C19.7353 52.2474 20.8964 52.7296 21.7527 53.5864C22.609 54.4431 23.0906 55.6045 23.0918 56.8158C23.0918 56.9953 23.1272 57.173 23.196 57.3388C23.2648 57.5046 23.3655 57.6552 23.4926 57.7821C23.6196 57.9089 23.7704 58.0094 23.9363 58.0779C24.1023 58.1463 24.2801 58.1814 24.4596 58.1811H76.7885C76.968 58.1814 77.1458 58.1463 77.3117 58.0779C77.4777 58.0094 77.6285 57.9089 77.7555 57.7821C77.8825 57.6552 77.9833 57.5046 78.0521 57.3388C78.1209 57.173 78.1563 56.9953 78.1563 56.8158C78.1575 55.6045 78.6391 54.4431 79.4954 53.5864C80.3517 52.7296 81.5128 52.2474 82.7241 52.2455C82.9036 52.2458 83.0814 52.2108 83.2473 52.1423C83.4133 52.0738 83.5641 51.9733 83.6911 51.8465C83.8181 51.7197 83.9189 51.569 83.9877 51.4032C84.0564 51.2374 84.0918 51.0597 84.0918 50.8802V44.7039C84.0995 44.5197 84.0699 44.3358 84.0047 44.1633C83.9395 43.9907 83.8401 43.8332 83.7124 43.7001C83.5848 43.567 83.4315 43.4611 83.2619 43.3888C83.0922 43.3164 82.9097 43.2791 82.7253 43.2791C82.5409 43.2791 82.3584 43.3164 82.1887 43.3888C82.0191 43.4611 81.8658 43.567 81.7382 43.7001C81.6105 43.8332 81.5111 43.9907 81.4459 44.1633C81.3807 44.3358 81.3511 44.5197 81.3588 44.7039V49.6411C79.9214 49.918 78.6 50.6192 77.565 51.6542C76.5299 52.6893 75.8287 54.0107 75.5518 55.448H25.6867C25.4098 54.0107 24.7086 52.6893 23.6736 51.6542C22.6386 50.6192 21.3171 49.918 19.8798 49.6411Z" fill="white" fill-opacity="0.5"/>
<path d="M48.8238 37.9439H52.1121C52.4647 37.9292 52.7979 37.7788 53.0421 37.5241C53.2864 37.2694 53.4228 36.9302 53.4228 36.5774C53.4228 36.2245 53.2864 35.8853 53.0421 35.6306C52.7979 35.3759 52.4647 35.2255 52.1121 35.2108H51.0375V34.3316C51.0452 34.1473 51.0155 33.9634 50.9503 33.7909C50.8851 33.6184 50.7857 33.4608 50.658 33.3277C50.5304 33.1946 50.3771 33.0887 50.2075 33.0164C50.0378 32.944 49.8553 32.9067 49.6709 32.9067C49.4865 32.9067 49.304 32.944 49.1343 33.0164C48.9647 33.0887 48.8115 33.1946 48.6838 33.3277C48.5562 33.4608 48.4567 33.6184 48.3915 33.7909C48.3263 33.9634 48.2967 34.1473 48.3044 34.3316V35.2442C47.181 35.329 46.1361 35.8524 45.3955 36.7013C44.6548 37.5501 44.2779 38.6563 44.3461 39.7808C44.4144 40.9053 44.9223 41.9578 45.7601 42.7109C46.5979 43.464 47.6984 43.8572 48.8238 43.8056H50.5156C50.9315 43.8056 51.3302 43.9708 51.6243 44.2648C51.9183 44.5589 52.0835 44.9577 52.0835 45.3735C52.0835 45.7893 51.9183 46.1881 51.6243 46.4822C51.3302 46.7762 50.9315 46.9414 50.5156 46.9414H47.2321C47.0478 46.9337 46.8639 46.9633 46.6914 47.0286C46.5189 47.0938 46.3614 47.1932 46.2283 47.3208C46.0952 47.4485 45.9893 47.6017 45.9169 47.7714C45.8446 47.941 45.8073 48.1235 45.8073 48.3079C45.8073 48.4924 45.8446 48.6749 45.9169 48.8445C45.9893 49.0141 46.0952 49.1674 46.2283 49.295C46.3614 49.4227 46.5189 49.5221 46.6914 49.5873C46.8639 49.6525 47.0478 49.6822 47.2321 49.6745H48.3044V50.5537C48.3191 50.9063 48.4695 51.2395 48.7242 51.4838C48.9788 51.728 49.318 51.8644 49.6709 51.8644C50.0238 51.8644 50.363 51.728 50.6177 51.4838C50.8723 51.2395 51.0227 50.9063 51.0375 50.5537V49.634C52.1618 49.5501 53.2079 49.0269 53.9494 48.1776C54.6908 47.3283 55.0681 46.2212 54.9995 45.0959C54.9309 43.9705 54.422 42.9174 53.5828 42.1644C52.7437 41.4115 51.6418 41.0192 50.5156 41.0725H48.8238C48.6133 41.0807 48.4032 41.0464 48.2062 40.9715C48.0093 40.8965 47.8295 40.7826 47.6776 40.6366C47.5257 40.4905 47.4049 40.3153 47.3223 40.1214C47.2398 39.9275 47.1973 39.7189 47.1973 39.5082C47.1973 39.2975 47.2398 39.0889 47.3223 38.895C47.4049 38.7011 47.5257 38.5259 47.6776 38.3798C47.8295 38.2338 48.0093 38.1199 48.2062 38.045C48.4032 37.9701 48.6133 37.9357 48.8238 37.9439Z" fill="white" fill-opacity="0.5"/>
<path d="M34.6056 41.4752C34.353 41.7286 34.2094 42.0706 34.2053 42.4283C34.2051 42.5189 34.2147 42.6091 34.2339 42.6976C34.2506 42.7845 34.277 42.8692 34.3125 42.9502C34.3452 43.0343 34.3876 43.1142 34.4388 43.1885C34.487 43.2625 34.5429 43.3312 34.6056 43.3934C34.6691 43.457 34.7385 43.5145 34.8129 43.565C34.8881 43.6138 34.9679 43.6553 35.0512 43.6889C35.1344 43.7233 35.2205 43.7505 35.3085 43.7699C35.3965 43.7862 35.4859 43.7941 35.5754 43.7937C35.9372 43.7924 36.284 43.6486 36.5404 43.3934C36.6039 43.3306 36.6613 43.262 36.712 43.1885C36.7597 43.1121 36.8019 43.0325 36.8383 42.9502C36.8698 42.868 36.8953 42.7835 36.9145 42.6976C36.9329 42.6091 36.9417 42.5188 36.9407 42.4283C36.9387 42.159 36.857 41.8962 36.706 41.6731C36.5549 41.45 36.3412 41.2766 36.0918 41.1747C35.8424 41.0728 35.5685 41.047 35.3044 41.1005C35.0404 41.1539 34.7981 41.2843 34.608 41.4752H34.6056Z" fill="white" fill-opacity="0.5"/>
<path d="M64.529 43.2004C64.5802 43.2735 64.6376 43.342 64.7005 43.4053C64.8427 43.5487 65.015 43.6587 65.205 43.7272C65.395 43.7957 65.5978 43.8211 65.7988 43.8014C65.9998 43.7818 66.1939 43.7177 66.367 43.6137C66.5402 43.5098 66.688 43.3686 66.7998 43.2004C66.851 43.1262 66.8934 43.0462 66.9261 42.9621C66.9616 42.8811 66.9879 42.7964 67.0047 42.7095C67.0236 42.6226 67.0332 42.534 67.0333 42.445C67.041 42.2608 67.0113 42.0769 66.9461 41.9044C66.8809 41.7319 66.7815 41.5743 66.6538 41.4412C66.5262 41.3081 66.3729 41.2022 66.2033 41.1299C66.0337 41.0575 65.8512 41.0202 65.6667 41.0202C65.4823 41.0202 65.2998 41.0575 65.1302 41.1299C64.9605 41.2022 64.8073 41.3081 64.6796 41.4412C64.552 41.5743 64.4526 41.7319 64.3874 41.9044C64.3221 42.0769 64.2925 42.2608 64.3002 42.445C64.3007 42.5338 64.3095 42.6224 64.3264 42.7095C64.3454 42.7958 64.3717 42.8803 64.405 42.9621C64.4398 43.0448 64.4812 43.1245 64.529 43.2004Z" fill="white" fill-opacity="0.5"/>
<path d="M99.0083 75.6877C97.7327 74.6852 96.1273 74.198 94.5097 74.3224C92.8921 74.4469 91.3801 75.1739 90.2729 76.3596L81.6304 85.7026C81.5 85.8328 81.3972 85.9879 81.3283 86.1587C81.2593 86.3295 81.2255 86.5125 81.229 86.6966C81.2325 86.8808 81.2731 87.0624 81.3485 87.2305C81.4239 87.3985 81.5324 87.5497 81.6676 87.6748C81.8029 87.7999 81.962 87.8964 82.1354 87.9585C82.3088 88.0206 82.493 88.047 82.6769 88.0362C82.8608 88.0253 83.0406 87.9775 83.2055 87.8955C83.3705 87.8134 83.5171 87.6989 83.6367 87.5588L92.2792 78.2158C92.9166 77.5326 93.7874 77.1138 94.719 77.0423C95.6506 76.9708 96.5751 77.2519 97.3093 77.8298C97.6944 78.1356 98.0148 78.5149 98.252 78.9456C98.4892 79.3763 98.6384 79.8498 98.6909 80.3387C98.7435 80.8276 98.6983 81.3221 98.5581 81.7933C98.4178 82.2646 98.1853 82.7033 97.874 83.0839L82.8289 101.484C81.7363 102.824 80.1798 103.704 78.4684 103.95L49.3457 108.165C47.8663 108.384 46.457 108.94 45.2269 109.79C43.9969 110.64 42.979 111.762 42.252 113.069L41.4562 114.499H14.6662L28.5437 93.9901C30.5295 91.0332 33.2864 88.6759 36.5159 87.1735C39.7454 85.6711 43.3243 85.0809 46.8652 85.4667C49.2134 85.7104 51.5262 86.2212 53.7586 86.9894C55.2753 87.5316 56.8731 87.812 58.4838 87.8186H72.4113C73.4789 87.8198 74.5025 88.2445 75.2574 88.9994C76.0123 89.7544 76.437 90.7779 76.4383 91.8455C76.437 92.9978 75.9787 94.1026 75.1639 94.9174C74.3491 95.7322 73.2443 96.1905 72.092 96.1918H59.332C57.2434 96.1914 55.2205 96.9214 53.6133 98.2553L50.6157 100.743C50.3476 100.978 50.1817 101.308 50.1535 101.663C50.1252 102.019 50.2368 102.371 50.4645 102.645C50.6922 102.92 51.018 103.094 51.3725 103.132C51.7269 103.17 52.0821 103.067 52.3623 102.847L55.3575 100.359C56.471 99.4365 57.8715 98.9309 59.3177 98.9296H72.0872C73.964 98.9271 75.7632 98.1804 77.0903 96.8534C78.4174 95.5263 79.164 93.7271 79.1666 91.8503C79.164 90.0582 78.451 88.3402 77.1838 87.073C75.9166 85.8058 74.1986 85.0928 72.4065 85.0903H58.4838C57.1839 85.0832 55.8947 84.8552 54.6713 84.4159C52.2419 83.5757 49.7243 83.0161 47.1678 82.7479C43.132 82.3061 39.0523 82.9769 35.3705 84.6876C31.6886 86.3983 28.545 89.0838 26.28 92.4531L10.9586 115.09C10.8166 115.296 10.7337 115.536 10.7189 115.786C10.7042 116.035 10.758 116.284 10.8747 116.505C10.9913 116.726 11.1663 116.911 11.3807 117.04C11.595 117.168 11.8405 117.236 12.0904 117.234H42.2616C42.506 117.233 42.7454 117.166 42.955 117.04C43.1646 116.914 43.3365 116.734 43.453 116.52L44.6444 114.375C45.1671 113.437 45.8986 112.631 46.7823 112.02C47.6661 111.409 48.6785 111.01 49.7412 110.853L78.8711 106.655C81.2593 106.311 83.4314 105.083 84.9568 103.214L100.002 84.8138C100.544 84.1533 100.949 83.3913 101.193 82.5725C101.438 81.7537 101.516 80.8945 101.425 80.0449C101.333 79.1953 101.074 78.3725 100.661 77.6243C100.248 76.8762 99.6903 76.2179 99.0202 75.6877H99.0083Z" fill="white" fill-opacity="0.5"/>
</svg>
