<svg width="188" height="184" viewBox="0 0 188 184" fill="none" xmlns="http://www.w3.org/2000/svg">
<path d="M8.17931 8.51995H179.821V175.48H8.17931V8.51995ZM0.375 183.284H187.625V0.715637H0.375V183.284ZM126.615 75.6157C120.449 75.6157 118.342 78.7387 118.342 81.3134C118.342 84.1221 119.747 86.0749 128.019 90.3616C140.271 96.2934 144.069 101.984 144.069 110.337C144.069 122.823 134.553 129.53 121.68 129.53C116.155 129.735 110.663 128.587 105.683 126.187C105.135 125.952 105.061 125.565 105.061 124.936V113.454C105.061 112.671 105.449 112.437 105.997 112.832C110.675 115.839 116.119 117.437 121.68 117.433C127.845 117.433 130.42 114.858 130.42 111.347C130.42 108.538 128.628 106.044 120.743 101.984C109.662 96.6813 105.061 91.2845 105.061 82.3232C105.061 72.2585 112.939 63.9125 126.595 63.9125C131.348 63.7084 136.095 64.4518 140.558 66.0993C140.815 66.2662 141.023 66.4985 141.161 66.7723C141.298 67.0462 141.361 67.3517 141.341 67.6575V78.3575C141.341 78.9795 140.953 79.374 140.171 79.14C136.045 76.7652 131.354 75.552 126.595 75.629L126.615 75.6157ZM59.5126 84.8979C61.3048 85.0517 62.7092 85.0517 65.8323 85.0517C74.9607 85.0517 83.5407 81.8551 83.5407 69.4498C83.5407 59.5389 77.3749 54.55 67.0026 54.55C63.8795 54.55 60.9169 54.7038 59.5126 54.7841V84.8979ZM45.6226 43.4354C45.6226 42.887 46.7127 42.4991 47.3413 42.4991C52.3369 42.2651 59.7466 42.1113 67.4707 42.1113C89.0847 42.1113 97.5109 53.9682 97.5109 69.1087C97.5109 88.9238 83.1529 97.4303 65.5246 97.4303C62.5621 97.4303 61.5456 97.2765 59.439 97.2765V127.236C59.439 127.858 59.2049 128.173 58.5028 128.173H46.5656C45.9436 128.173 45.6293 127.939 45.6293 127.236V43.4688L45.6226 43.4354Z" fill="#31C5F0"/>
</svg>
