<svg width="26" height="30" viewBox="0 0 26 30" fill="none" xmlns="http://www.w3.org/2000/svg">
<path d="M18.7547 3.08117C18.4729 3.9459 18.017 4.74734 17.4676 5.41391V5.41513C16.9132 6.08552 16.1726 6.67824 15.3488 7.07124C14.5927 7.43191 13.7639 7.62615 12.9391 7.56186L12.6867 7.54218L12.6534 7.29085C12.5463 6.48032 12.67 5.6598 12.9306 4.90048C13.2339 4.01686 13.7251 3.21062 14.2522 2.5997L14.2521 2.5996C14.7975 1.96065 15.529 1.40473 16.3124 1.00193C17.0984 0.597748 17.9426 0.345009 18.7109 0.313707L19.0013 0.301872L19.0331 0.592027C19.1262 1.44062 19.013 2.28829 18.7547 3.08119L18.7547 3.08117Z" fill="white"/>
<path d="M24.0947 10.7044C23.8163 10.8767 21.1251 12.542 21.1584 15.8985C21.1936 19.945 24.6247 21.3478 24.8141 21.4252H24.8154L24.8235 21.4286L25.0927 21.5401L25.0005 21.8155C24.9951 21.8319 25.0013 21.8145 24.9933 21.8401C24.9058 22.1206 24.3123 24.0219 22.9716 25.981C22.3632 26.8697 21.7434 27.757 21.0116 28.4414C20.2539 29.15 19.3885 29.6284 18.3195 29.6483C17.3119 29.6672 16.6522 29.3817 15.9665 29.085C15.3126 28.8021 14.6326 28.5078 13.5684 28.5078C12.4506 28.5078 11.736 28.8123 11.0477 29.1055C10.3998 29.3815 9.77323 29.6485 8.87051 29.6845H8.86929C7.82692 29.7232 6.92303 29.2151 6.11972 28.4624C5.35118 27.7424 4.67783 26.7996 4.06424 25.9121C2.67914 23.9121 1.47455 21.0021 1.10238 18.0431C0.796263 15.6092 1.05214 13.1367 2.22886 11.0948C2.88575 9.95229 3.80385 9.01992 4.87725 8.36933C5.94576 7.72173 7.16825 7.35319 8.44075 7.33411V7.33409C9.55481 7.31388 10.6053 7.73075 11.5244 8.09551C12.1749 8.35364 12.7545 8.58366 13.189 8.58366C13.5728 8.58366 14.1387 8.36057 14.7983 8.10052C15.9123 7.66132 17.2751 7.12405 18.7162 7.26735C19.3214 7.29367 20.582 7.43864 21.8705 8.13696C22.6914 8.58184 23.524 9.24974 24.2084 10.2514L24.3889 10.5156L24.1193 10.6897C24.1049 10.699 24.1189 10.6895 24.0947 10.7044L24.0947 10.7044Z" fill="white"/>
</svg>
