<svg width="24" height="24" viewBox="0 0 24 24" fill="none" xmlns="http://www.w3.org/2000/svg">
<path d="M21.955 24L13.6957 15.7397C10.0215 18.3517 4.9586 17.7128 2.04858 14.2699C-0.861433 10.827 -0.647759 5.72877 2.54014 2.54143C5.72719 -0.647303 10.8263 -0.861889 14.27 2.0478C17.7137 4.95749 18.353 10.0206 15.7406 13.6949L24 21.9552L21.9565 23.9986L21.955 24ZM8.6707 2.89113C5.93016 2.89051 3.56578 4.81413 3.00907 7.49737C2.45235 10.1806 3.8563 12.886 6.37091 13.9756C8.88552 15.0651 11.8197 14.2394 13.3969 11.9984C14.9741 9.7573 14.7609 6.71683 12.8864 4.71778L13.7607 5.58485L12.7751 4.60217L12.7577 4.58483C11.6764 3.49691 10.2046 2.887 8.6707 2.89113Z" fill="white"/>
</svg>
